# xmcd
#
# Track frame offsets: 
#        150
#        11827
#        28980
#        43803
#        57177
#        70724
#        83957
#        96334
#        112035
#        127076
#        141046
#        153477
#        167252
#        193244
#        210352
#        222749
#        238804
#        250110
#
# Disc length: 3541 seconds
#
# Revision: 0
# Processed by: cddbd v1.5.2PL0 Copyright (c) Steve Scherf et al.
# Submitted via: ExactAudioCopyFreeDBPlugin 1.0
#
DISCID=0d0dd312
DTITLE=Various Artist - I Got Two Wings
DYEAR=2008
DGENRE=Gospel
TTITLE0=Rev. Utah Smith - Two Wings
TTITLE1=Rev. Utah Smith and Congregation - Glory to Jesus I'm Free
TTITLE2=Rev. Utah Smith and Congregation - Two Wings and Everyman's Go
TTITLE2=t to Lay Down and Die
TTITLE3=Rev. Utah Smith - Take a Trip
TTITLE4=Sister Rosetta Tharpe - I Have Good News to Bring
TTITLE5=Rev. Utah Smith - I Want Two Wings
TTITLE6=Sister Sarah James and the Sanctified Six - God Rode in a Wind
TTITLE6=Storm
TTITLE7=Arizona Dranes - Crucifixion
TTITLE8=F. W. McGee - With His Stripes We Are Healed
TTITLE9=Elder Curry - Memphis Flu
TTITLE10=Rev. Utah Smith - God's Mighty Hand
TTITLE11=Johnny Wiggs - There's a Two Wing Temple in the Sky
TTITLE12=Brother Bill Lewis - Two Wings Flying Home
TTITLE13=Rev. Utah Smith and Congregation - A New World in My View
TTITLE14=Rev. Robert Ballinger - New World
TTITLE15=Rev. Utah Smith and Congregation - Two Wings
TTITLE16=Sister Sarah James and the Sanctified Six - Prayer Changes Th
TTITLE16=ings
TTITLE17=Rev. Utah Smith and Congregation - I Got Two Wings
EXTD=
EXTT0=
EXTT1=
EXTT2=
EXTT3=
EXTT4=
EXTT5=
EXTT6=
EXTT7=
EXTT8=
EXTT9=
EXTT10=
EXTT11=
EXTT12=
EXTT13=
EXTT14=
EXTT15=
EXTT16=
EXTT17=
PLAYORDER=
